<svg width="44" height="44" viewBox="0 0 44 44" fill="none" xmlns="http://www.w3.org/2000/svg">
<path fill-rule="evenodd" clip-rule="evenodd" d="M27.6 23.1667L29.1 24.675C29.4852 25.0667 29.5985 25.6508 29.3876 26.1581C29.1767 26.6653 28.6826 26.9969 28.1333 27H25.3333V27.2834C25.2523 29.0448 23.7616 30.4087 22 30.3334C20.2383 30.4087 18.7477 29.0448 18.6667 27.2834V27H15.8667C15.3174 26.9969 14.8233 26.6653 14.6124 26.1581C14.4015 25.6508 14.5148 25.0667 14.9 24.675L16.4 23.1667V19.275C16.4029 17.6593 17.1015 16.1232 18.3173 15.059C19.533 13.9948 21.1481 13.5057 22.75 13.7167C25.5712 14.1491 27.6413 16.5961 27.6 19.45V23.1667ZM22 28.6667C22.8362 28.7257 23.5706 28.1161 23.6667 27.2834V27H20.3333V27.2834C20.4293 28.1161 21.1638 28.7257 22 28.6667Z" fill="#637381"/>
<path d="M21 12C21 6.47715 25.4772 2 31 2H32C37.5228 2 42 6.47715 42 12C42 17.5228 37.5228 22 32 22H31C25.4772 22 21 17.5228 21 12Z" fill="#FF4842"/>
<path d="M31.5576 17.18C30.8456 17.18 30.2576 17.064 29.7936 16.832C29.3296 16.592 28.9896 16.284 28.7736 15.908C28.5656 15.532 28.4616 15.128 28.4616 14.696C28.4616 14.28 28.5416 13.932 28.7016 13.652C28.8696 13.364 29.0576 13.148 29.2656 13.004C29.4736 12.86 29.6576 12.764 29.8176 12.716V12.668C29.6736 12.612 29.5136 12.508 29.3376 12.356C29.1696 12.204 29.0176 12 28.8816 11.744C28.7536 11.48 28.6896 11.176 28.6896 10.832C28.6896 10.44 28.7856 10.064 28.9776 9.704C29.1776 9.336 29.4936 9.036 29.9256 8.804C30.3576 8.572 30.9016 8.456 31.5576 8.456C32.2296 8.456 32.7776 8.576 33.2016 8.816C33.6336 9.048 33.9456 9.344 34.1376 9.704C34.3296 10.064 34.4256 10.44 34.4256 10.832C34.4256 11.176 34.3576 11.48 34.2216 11.744C34.0936 12 33.9416 12.204 33.7656 12.356C33.5976 12.508 33.4456 12.612 33.3096 12.668V12.716C33.4696 12.764 33.6496 12.86 33.8496 13.004C34.0576 13.148 34.2456 13.364 34.4136 13.652C34.5816 13.932 34.6656 14.28 34.6656 14.696C34.6656 15.128 34.5576 15.532 34.3416 15.908C34.1336 16.284 33.7936 16.592 33.3216 16.832C32.8576 17.064 32.2696 17.18 31.5576 17.18ZM31.5576 12.164C31.9976 12.164 32.3216 12.048 32.5296 11.816C32.7456 11.576 32.8536 11.296 32.8536 10.976C32.8536 10.664 32.7456 10.388 32.5296 10.148C32.3136 9.908 31.9896 9.788 31.5576 9.788C31.1176 9.788 30.7896 9.908 30.5736 10.148C30.3656 10.38 30.2616 10.656 30.2616 10.976C30.2616 11.304 30.3656 11.584 30.5736 11.816C30.7896 12.048 31.1176 12.164 31.5576 12.164ZM31.5576 15.812C32.0456 15.812 32.4056 15.68 32.6376 15.416C32.8776 15.152 32.9976 14.848 32.9976 14.504C32.9976 14.144 32.8776 13.832 32.6376 13.568C32.3976 13.296 32.0376 13.16 31.5576 13.16C31.0776 13.16 30.7176 13.296 30.4776 13.568C30.2376 13.832 30.1176 14.144 30.1176 14.504C30.1176 14.864 30.2336 15.172 30.4656 15.428C30.7056 15.684 31.0696 15.812 31.5576 15.812Z" fill="white"/>
</svg>
