<svg width="16" height="16" viewBox="0 0 16 16" fill="none" xmlns="http://www.w3.org/2000/svg">
<path d="M8.00001 10.6667C7.84424 10.667 7.69328 10.6127 7.57334 10.5133L3.57334 7.18C3.28983 6.94435 3.25103 6.5235 3.48667 6.24C3.72231 5.95649 4.14317 5.91769 4.42667 6.15333L8.00001 9.14L11.5733 6.26C11.7111 6.14815 11.8877 6.09582 12.0641 6.11459C12.2406 6.13335 12.4022 6.22168 12.5133 6.36C12.6368 6.49857 12.6968 6.68231 12.6791 6.86703C12.6614 7.05176 12.5675 7.22074 12.42 7.33333L8.42001 10.5533C8.29662 10.637 8.14874 10.6769 8.00001 10.6667Z" fill="#00AB55"/>
</svg>
