<svg width="24" height="24" viewBox="0 0 24 24" fill="none" xmlns="http://www.w3.org/2000/svg">
<path d="M20.38 8.57L19.15 10.42C20.3549 12.8231 20.2722 15.6708 18.93 18H5.06997C3.30647 14.9407 3.75736 11.087 6.17945 8.51743C8.60155 5.94784 12.4219 5.27021 15.58 6.85L17.43 5.62C13.5538 3.13444 8.48137 3.61706 5.14347 6.78901C1.80556 9.96097 1.06513 15.0022 3.34997 19C3.70508 19.6151 4.35975 19.9957 5.06997 20H18.92C19.6373 20.0028 20.3013 19.6213 20.66 19C22.5386 15.7457 22.4343 11.7129 20.39 8.56L20.38 8.57Z" fill="#637381"/>
<path opacity="0.48" d="M10.59 15.41C10.9651 15.7855 11.4742 15.9966 12.005 15.9966C12.5358 15.9966 13.0449 15.7855 13.42 15.41L19.08 6.91998L10.59 12.58C10.2144 12.9551 10.0034 13.4642 10.0034 13.995C10.0034 14.5258 10.2144 15.0348 10.59 15.41Z" fill="#637381"/>
</svg>
