<svg width="20" height="20" viewBox="0 0 20 20" fill="none" xmlns="http://www.w3.org/2000/svg">
<path fill-rule="evenodd" clip-rule="evenodd" d="M16.9334 7.80835H16.025C15.9084 7.80835 15.825 7.71669 15.775 7.59169C15.7142 7.49791 15.7142 7.37713 15.775 7.28335L16.45 6.66669C16.7173 6.40955 16.8679 6.05427 16.8667 5.68335C16.8663 5.31031 16.7162 4.95304 16.45 4.69169L15.3334 3.55002C15.0721 3.28692 14.7166 3.13896 14.3459 3.13896C13.9751 3.13896 13.6196 3.28692 13.3584 3.55002L12.7167 4.16669C12.6126 4.2334 12.4791 4.2334 12.375 4.16669C12.2723 4.12838 12.2009 4.03426 12.1917 3.92502V3.06669C12.192 2.30947 11.5902 1.68922 10.8334 1.66669H9.21669C8.44213 1.66667 7.81294 2.29214 7.80835 3.06669V3.97502C7.80835 4.09169 7.71669 4.17502 7.59169 4.22502C7.49791 4.28584 7.37713 4.28584 7.28335 4.22502L6.66669 3.55002C6.40276 3.28766 6.04713 3.13824 5.67502 3.13335C5.30449 3.13408 4.94994 3.28431 4.69169 3.55002L3.55002 4.66669C3.27914 4.92886 3.12621 5.28971 3.12621 5.66669C3.12621 6.04366 3.27914 6.40451 3.55002 6.66669L4.16669 7.28335C4.2334 7.38747 4.2334 7.5209 4.16669 7.62502C4.12838 7.72774 4.03426 7.79914 3.92502 7.80835H3.06669C2.29349 7.80835 1.66669 8.43516 1.66669 9.20835V10.7834C1.66667 11.5579 2.29214 12.1871 3.06669 12.1917H3.97502C4.09169 12.1917 4.17502 12.2834 4.22502 12.4084C4.28584 12.5021 4.28584 12.6229 4.22502 12.7167L3.55002 13.3334C3.28766 13.5973 3.13824 13.9529 3.13335 14.325C3.13278 14.6982 3.28304 15.0559 3.55002 15.3167L4.66669 16.45C4.92795 16.7131 5.2834 16.8611 5.65419 16.8611C6.02497 16.8611 6.38042 16.7131 6.64169 16.45L7.28335 15.8334C7.38747 15.7666 7.5209 15.7666 7.62502 15.8334C7.72774 15.8717 7.79914 15.9658 7.80835 16.075V16.9834C7.83529 17.737 8.45427 18.3338 9.20835 18.3334H10.7834C11.5579 18.3334 12.1871 17.7079 12.1917 16.9334V16.025C12.1917 15.9084 12.2834 15.825 12.4084 15.775C12.5021 15.7142 12.6229 15.7142 12.7167 15.775L13.35 16.4167C13.614 16.679 13.9696 16.8285 14.3417 16.8334C14.7122 16.8326 15.0668 16.6824 15.325 16.4167L16.4417 15.3C16.7048 15.0388 16.8528 14.6833 16.8528 14.3125C16.8528 13.9417 16.7048 13.5863 16.4417 13.325L15.8334 12.7167C15.7725 12.6229 15.7725 12.5021 15.8334 12.4084C15.8717 12.3056 15.9658 12.2342 16.075 12.225H16.9834C17.7337 12.1982 18.3294 11.5842 18.3334 10.8334V9.21669C18.3334 8.44213 17.7079 7.81294 16.9334 7.80835ZM10 12.9167C8.82034 12.9167 7.75682 12.2061 7.30537 11.1162C6.85393 10.0263 7.10346 8.77179 7.93763 7.93763C8.77179 7.10346 10.0263 6.85393 11.1162 7.30537C12.2061 7.75682 12.9167 8.82034 12.9167 10C12.9167 11.6109 11.6109 12.9167 10 12.9167ZM10 11.25C10.6904 11.25 11.25 10.6904 11.25 10C11.25 9.30966 10.6904 8.75002 10 8.75002C9.30966 8.75002 8.75002 9.30966 8.75002 10C8.75002 10.6904 9.30966 11.25 10 11.25Z" fill="#637381"/>
</svg>
