<svg width="18" height="18" viewBox="0 0 18 18" fill="none" xmlns="http://www.w3.org/2000/svg">
<path fill-rule="evenodd" clip-rule="evenodd" d="M5.56423 0.716656C6.45311 0.676379 6.7368 0.666656 8.99999 0.666656C11.2632 0.666656 11.5469 0.676379 12.4358 0.716656C13.7906 0.778462 14.9799 1.11041 15.9347 2.06527C16.8899 3.02048 17.2215 4.21006 17.2833 5.56423C17.3236 6.45311 17.3333 6.7368 17.3333 8.99999C17.3333 11.2632 17.3236 11.5469 17.2833 12.4358C17.2215 13.7906 16.8896 14.9799 15.9347 15.9347C14.9795 16.8899 13.7896 17.2215 12.4358 17.2833C11.5469 17.3236 11.2632 17.3333 8.99999 17.3333C6.7368 17.3333 6.45311 17.3236 5.56423 17.2833C4.20936 17.2215 3.02013 16.8896 2.06527 15.9347C1.11006 14.9795 0.778462 13.7899 0.716656 12.4358C0.676379 11.5469 0.666656 11.2632 0.666656 8.99999C0.666656 6.7368 0.676379 6.45311 0.716656 5.56423C0.778462 4.20936 1.11041 3.02013 2.06527 2.06527C3.02048 1.11006 4.21006 0.778462 5.56423 0.716656ZM8.99999 3.44443C7.49131 3.44443 7.30207 3.45068 6.70936 3.47777C5.80659 3.51909 5.01353 3.74027 4.37673 4.37673C3.74027 5.01318 3.51909 5.80624 3.47777 6.70936C3.45068 7.30207 3.44443 7.49131 3.44443 8.99999C3.44443 10.5087 3.45068 10.6979 3.47777 11.2906C3.51909 12.1934 3.74027 12.9864 4.37673 13.6233C5.01318 14.2597 5.80624 14.4809 6.70936 14.5222C7.30207 14.5493 7.49131 14.5555 8.99999 14.5555C10.5087 14.5555 10.6979 14.5493 11.2906 14.5222C12.1934 14.4809 12.9864 14.2597 13.6233 13.6233C14.2597 12.9868 14.4809 12.1937 14.5222 11.2906C14.5493 10.6979 14.5555 10.5087 14.5555 8.99999C14.5555 7.49131 14.5493 7.30207 14.5222 6.70936C14.4809 5.80659 14.2597 5.01353 13.6233 4.37673C12.9868 3.74027 12.1937 3.51909 11.2906 3.47777C10.6979 3.45068 10.5087 3.44443 8.99999 3.44443ZM8.99999 4.44548C10.4833 4.44548 10.659 4.45103 11.2448 4.47777C11.8771 4.50659 12.4639 4.63332 12.9153 5.08471C13.3667 5.5361 13.4934 6.12291 13.5222 6.7552C13.5489 7.34096 13.5545 7.51666 13.5545 8.99999C13.5545 10.4833 13.5489 10.659 13.5222 11.2448C13.4934 11.8771 13.3667 12.4639 12.9153 12.9153C12.4639 13.3667 11.8771 13.4934 11.2448 13.5222C10.659 13.5489 10.4833 13.5545 8.99999 13.5545C7.51666 13.5545 7.34096 13.5489 6.7552 13.5222C6.12291 13.4934 5.5361 13.3667 5.08471 12.9153C4.63332 12.4639 4.50659 11.8771 4.47777 11.2448C4.45103 10.659 4.44548 10.4833 4.44548 8.99999C4.44548 7.51666 4.45103 7.34096 4.47777 6.7552C4.50659 6.12291 4.63332 5.5361 5.08471 5.08471C5.5361 4.63332 6.12291 4.50659 6.7552 4.47777C7.34096 4.45103 7.51666 4.44548 8.99999 4.44548ZM6.14721 8.99999C6.14721 7.42464 7.42429 6.14721 8.99999 6.14721C10.5757 6.14721 11.8528 7.42464 11.8528 8.99999C11.8528 10.5753 10.5753 11.8528 8.99999 11.8528C7.42464 11.8528 6.14721 10.5753 6.14721 8.99999ZM7.14825 8.99999C7.14825 10.0226 7.97707 10.8517 8.99999 10.8517C10.0229 10.8517 10.8517 10.0229 10.8517 8.99999C10.8517 7.97742 10.0229 7.14825 8.99999 7.14825C7.97742 7.14825 7.14825 7.97707 7.14825 8.99999ZM11.9656 6.70103C12.3338 6.70103 12.6323 6.40255 12.6323 6.03436C12.6323 5.66617 12.3338 5.3677 11.9656 5.3677C11.5974 5.3677 11.2989 5.66617 11.2989 6.03436C11.2989 6.40255 11.5974 6.70103 11.9656 6.70103Z" fill="#E02D69"/>
</svg>
