<svg width="10" height="16" viewBox="0 0 10 16" fill="none" xmlns="http://www.w3.org/2000/svg">
<path d="M9.16667 0.916673C9.16667 0.686554 8.98012 0.500006 8.75 0.500006H6.66667C4.48276 0.391218 2.62106 2.06675 2.5 4.25001V6.50001H0.416667C0.186548 6.50001 0 6.68655 0 6.91667V9.08334C0 9.31346 0.186548 9.50001 0.416667 9.50001H2.5V15.0833C2.5 15.3135 2.68655 15.5 2.91667 15.5H5.41667C5.64678 15.5 5.83333 15.3135 5.83333 15.0833V9.50001H8.01667C8.20729 9.50274 8.37545 9.37576 8.425 9.19167L9.025 7.02501C9.0586 6.90023 9.03241 6.76693 8.95409 6.66415C8.87578 6.56136 8.75422 6.50073 8.625 6.50001H5.83333V4.25001C5.87628 3.82259 6.2371 3.49785 6.66667 3.50001H8.75C8.98012 3.50001 9.16667 3.31346 9.16667 3.08334V0.916673Z" fill="#1877F2"/>
</svg>
