<svg width="16" height="14" viewBox="0 0 16 14" fill="none" xmlns="http://www.w3.org/2000/svg">
<path d="M4.73334 13.6667C7.22285 13.75 9.64023 12.823 11.4358 11.0965C13.2313 9.37004 14.2523 6.99085 14.2667 4.5C14.8314 3.80117 15.2507 2.99652 15.5 2.13333C15.538 1.99402 15.4907 1.84537 15.3792 1.75364C15.2677 1.6619 15.1127 1.64416 14.9833 1.70833C14.3775 1.99994 13.6532 1.87251 13.1833 1.39166C12.5923 0.744441 11.7644 0.364133 10.8883 0.337443C10.0122 0.310752 9.16268 0.639955 8.53334 1.25C7.66581 2.09016 7.30212 3.32356 7.57501 4.5C4.78334 4.66666 2.86667 3.34166 1.33334 1.525C1.23922 1.4184 1.09097 1.37756 0.955528 1.4209C0.820091 1.46424 0.723097 1.58356 0.708341 1.725C0.110104 5.04347 1.63906 8.38391 4.54167 10.1C3.59137 11.1899 2.25685 11.8705 0.816674 12C0.658491 12.0262 0.534487 12.1501 0.508127 12.3083C0.481767 12.4665 0.558882 12.6239 0.700007 12.7C1.95294 13.3261 3.3327 13.6568 4.73334 13.6667Z" fill="#00AAEC"/>
</svg>
